<svg width="81" height="91" viewBox="0 0 81 91" fill="none" xmlns="http://www.w3.org/2000/svg">
<path opacity="0.992157" d="M23.7232 0.695557H57.4251L57.5962 0.866632H59.1359L61.702 1.37986L65.8078 3.09062C67.6669 4.13988 69.2921 5.42295 70.6835 6.93983L72.2232 8.82166L73.5918 11.0456L74.2761 12.5853L75.3025 16.1779C75.1315 16.8052 75.1885 17.2044 75.4736 17.3755V35.5095L75.3025 35.6806L75.1315 37.5624L73.7629 41.6682L70.1703 46.886L65.9789 49.9654L63.4128 51.1629L60.5045 52.0183L58.4516 52.1894L58.2805 52.3605H47.6738L46.8184 52.5315L40.4031 56.8084C40.5285 57.1164 40.443 57.2304 40.1465 57.1506L36.0406 60.23L34.3299 60.7432C34.193 60.4923 33.8509 60.4352 33.3034 60.5721L32.277 60.0589L31.5071 59.289C31.1308 58.753 31.0167 57.9546 31.165 56.894C31.3703 56.0728 31.798 55.474 32.448 55.0977C36.0749 52.2236 39.8955 49.5434 43.9101 47.0571L47.3316 46.2017H58.2805C58.4174 45.9394 58.7595 45.8824 59.3069 46.0307C59.7632 45.6885 60.3904 45.5174 61.1888 45.5174L63.4128 44.491L66.0644 42.3525L67.7752 40.1285L68.8017 37.9046L69.486 35.5095V18.4019C68.8359 14.7751 67.3247 12.0094 64.9525 10.1047L62.8995 8.56505L61.0177 7.70967L58.2805 7.02536H22.3546L20.1306 7.53859L17.2223 8.9072L14.7417 11.0456L12.8599 13.6118L11.3202 17.8887C11.4913 18.516 11.4342 18.9151 11.1491 19.0862V33.7987L11.3202 33.9698L11.4913 36.0227L12.5177 39.1021L14.9983 42.6091C16.0362 43.6812 17.2907 44.5366 18.762 45.1753L22.0124 46.2017L25.9472 46.3728L27.7435 47.827C28.2567 48.5683 28.4278 49.6518 28.2567 51.0774L28.0856 51.7617L27.6579 52.1894L27.1447 52.3605H22.1835L22.0124 52.1894L19.9595 52.0183L15.3405 50.3076C13.2419 49.1556 11.4456 47.7015 9.95157 45.9451C8.73123 44.5423 7.70477 42.9456 6.8722 41.155L6.01682 38.5889L5.33252 35.3384V17.3755L6.01682 14.2961L7.21435 11.2167C8.51453 8.75323 10.1968 6.67181 12.2611 4.97245C13.9833 3.61525 15.9791 2.53177 18.2487 1.72201L20.6438 1.03771L23.5521 0.866632L23.7232 0.695557Z" fill="#2C3E50" stroke="#2C3E50" stroke-width="0.5"/>
<path opacity="0.992157" d="M52.8061 16.0923H54.3458L56.1421 17.2043L56.6553 18.5729V19.7704L56.3132 20.6258L54.3458 22.7642L52.8917 24.0473L52.464 24.6461L51.352 25.587L39.1201 37.99C38.6068 38.5032 37.7515 38.6743 36.5539 38.5032L35.3564 37.99L33.2179 36.0226L32.277 34.9106L31.6783 34.4829L30.3952 33.0288L29.4543 32.259L28.5134 31.147H28.2567V30.8048C27.9488 30.9303 27.8348 30.8447 27.9146 30.5482L26.7171 29.6073V29.2651C26.4091 29.3906 26.2951 29.305 26.3749 29.0085C25.3028 28.5409 24.9037 27.4004 25.1774 25.587C25.3485 24.8457 25.7191 24.3039 26.2894 23.9618C26.8368 23.4828 27.6922 23.3117 28.8555 23.4485L30.053 23.9618L37.0672 30.9759H37.4093L39.2911 28.923L40.2321 28.1531L40.8308 27.3833L41.7717 26.6134L42.7127 25.5015L43.4825 24.9027L51.0954 16.9477L52.8061 16.0923Z" fill="#2C3E50" stroke="#2C3E50" stroke-width="0.5"/>
<path opacity="0.992157" d="M2.5098 55.2688L8.1553 55.4399L8.32638 55.611H9.69498L9.86606 55.782L13.1165 56.1242L19.6174 57.6639L23.5521 59.0325L28.0001 61.0854L31.0795 62.9672C32.9727 64.2104 34.6549 65.6645 36.1262 67.3296C36.0464 67.592 36.1319 67.6775 36.3828 67.5863C37.9909 69.2514 39.274 71.1903 40.232 73.4028C40.54 73.5283 40.654 73.4428 40.5742 73.1462L42.2849 70.2379L46.3052 65.7044C48.0502 64.0849 49.989 62.6593 52.1218 61.4275L56.3987 59.3746L61.1888 57.6639L67.6897 56.1242H68.7161L71.1112 55.611H72.993L73.1641 55.4399H75.046L75.217 55.2688H78.2964L79.5795 56.2097L79.9216 57.0651V73.1462L78.9807 74.4293L76.5856 75.1136H74.8749L74.7038 75.2847H73.5063L73.3352 75.4557H72.1377L71.9666 75.6268L69.0583 75.969L64.6103 77.1665L58.9648 79.2194C56.4101 80.3143 54.0721 81.6259 51.9507 83.1542L44.5945 89.3129L43.2258 89.9972L41.344 90.5104H39.6333C39.485 90.2595 39.1428 90.2025 38.6068 90.3393L36.5539 89.484L33.9022 87.4311C34.0277 87.1231 33.9421 87.0091 33.6456 87.0889C30.2127 83.9069 26.2209 81.2837 21.6703 79.2194L17.2223 77.5087L13.6297 76.6533L13.1165 76.3111L7.29992 75.2847L2.85195 74.9425L1.22673 74.0016L0.713501 72.9751V57.2362L1.65442 55.611L2.5098 55.2688ZM73.7629 61.2565L73.5918 61.4275L68.2885 62.1118L66.9199 62.6251L65.3802 62.7961L61.1033 63.9937L60.2479 64.5069L57.6818 65.3623L54.4313 67.073L50.3255 70.1524C48.6147 71.6351 47.1891 73.4028 46.0486 75.4557L44.5089 78.7062L43.6535 81.7856C43.4254 81.8996 43.4825 82.0137 43.8246 82.1277C47.4742 78.7062 51.7511 75.8549 56.6553 73.5739L60.419 72.0342L66.0645 70.3235L70.5124 69.4681L73.934 69.1259V61.5986L73.7629 61.2565ZM6.87223 61.4275V69.1259L10.4648 69.4681L15.0839 70.3235L20.2161 71.8632L24.322 73.5739L28.0856 75.4557L33.389 78.8773L37.1527 82.1277H37.3237C36.1832 77.5657 34.1873 73.9161 31.3361 71.1789C29.8534 69.5821 28.1427 68.2135 26.2038 67.073L22.9534 65.3623L19.874 64.3358L19.5318 63.9937L12.5177 62.1118L6.87223 61.4275Z" fill="#2C3E50" stroke="#2C3E50" stroke-width="0.5"/>
<path opacity="0.392157" d="M41.8572 0.353516L42.0283 0.524591H58.6227L61.6165 1.03782C61.7647 1.37997 61.6222 1.49402 61.1888 1.37997L60.1623 1.03782L57.5962 0.866743L57.4251 0.695667H23.7232L23.5521 0.866743H21.6703L19.4463 1.37997L19.6174 1.03782L22.3546 0.524591H41.6861L41.8572 0.353516Z" fill="#2C3E50" stroke="#2C3E50" stroke-width="0.5"/>
<path opacity="0.392157" d="M18.762 1.37988L19.1897 1.46542C15.3005 2.59452 12.2212 4.53338 9.95156 7.282C8.74262 8.58218 7.74468 10.0933 6.95773 11.8155L6.87219 11.5589L8.49741 8.73614C8.75973 8.82738 8.84527 8.74185 8.75403 8.47953L10.2082 6.68323C10.4705 6.77447 10.556 6.68894 10.4648 6.42662L11.9189 4.97248L12.5177 4.8014L12.7743 4.28817L15.0838 3.09064C14.9584 2.7827 15.0439 2.66865 15.3404 2.74849L16.1958 2.23526L18.762 1.37988Z" fill="#2C3E50" stroke="#2C3E50" stroke-width="0.5"/>
<path opacity="0.392157" d="M61.873 1.37988L65.4656 2.57741L68.2884 4.54479L68.2029 4.8014L65.8078 3.09064L61.873 1.55096V1.37988Z" fill="#2C3E50" stroke="#2C3E50" stroke-width="0.5"/>
<path opacity="0.392157" d="M22.3546 7.02539H58.2805L59.9913 7.36754L61.4454 7.96631L61.0177 8.05185L59.8202 7.53862L57.5962 7.36754L57.4251 7.19647H23.21L23.0389 7.36754L20.986 7.53862L19.4463 8.05185V7.88077L22.3546 7.02539Z" fill="#2C3E50" stroke="#2C3E50" stroke-width="0.5"/>
<path opacity="0.392157" d="M18.9331 8.05176L19.1897 8.1373L16.8802 9.42036L14.9128 11.2167L13.5442 12.9274L12.5178 14.9803L11.4913 18.2308V34.6541L11.8335 36.5359H11.6624L11.1492 33.7987V19.0861L11.4913 17.2043L12.5178 14.296L15.1695 10.6179C16.1731 9.5116 17.4277 8.65623 18.9331 8.05176Z" fill="#2C3E50" stroke="#2C3E50" stroke-width="0.5"/>
<path opacity="0.392157" d="M61.702 8.05176L63.4128 8.90714L66.4066 11.5588C67.4102 12.6081 68.1516 13.9197 68.6306 15.4936L68.2884 15.3225C67.6611 13.3266 66.6062 11.7584 65.1235 10.6179L64.5247 10.1902C64.616 9.93929 64.5304 9.85376 64.2681 9.93359C63.5724 9.18086 62.6885 8.66763 61.6165 8.39391L61.702 8.05176Z" fill="#2C3E50" stroke="#2C3E50" stroke-width="0.5"/>
<path opacity="0.392157" d="M53.4904 15.7502L55.2012 16.0924L56.1421 16.8622L56.0565 17.1189C55.5091 16.2407 54.4256 15.8985 52.8061 16.0924L51.0953 16.9478L51.6086 16.2635L52.2929 15.9213C52.9201 16.0924 53.3193 16.0354 53.4904 15.7502Z" fill="#2C3E50" stroke="#2C3E50" stroke-width="0.5"/>
<path opacity="0.392157" d="M50.7531 17.1189L50.6676 17.3755L42.8836 25.5016L41.7716 26.4425L41.0018 27.3834L40.232 27.9822L39.4621 28.9231L38.3501 29.864L37.4092 30.976H37.0671L30.0529 23.9619C29.5055 23.4829 28.6501 23.3118 27.4868 23.4487C26.5402 23.5856 25.8844 24.0133 25.5194 24.7318C25.1089 25.3476 24.9948 26.26 25.1773 27.469L26.3748 29.2653H26.717C26.5915 29.5732 26.677 29.6873 26.9736 29.6074L27.9145 30.805H28.2566C28.1312 31.1129 28.2167 31.227 28.5133 31.1471L30.224 33.0289L31.6782 34.312L32.1059 34.9108L33.2178 35.8517L33.6455 36.4505L36.0406 38.3323L38.0935 38.5034L39.12 37.9901L51.3519 25.7582L52.2928 24.6462L52.8916 24.2185L54.1746 22.7644L55.6288 21.4813C56.3929 20.9339 56.7351 19.9645 56.6552 18.573L56.142 17.3755L56.3986 17.29L56.6552 17.5466L56.9974 19.0863L56.4842 20.797L54.5168 22.9355L53.2337 24.0475L52.806 24.6462L51.3519 25.9293L51.0953 26.357L49.6411 27.6401L49.3845 28.0677L47.9304 29.3508L47.5027 29.9496C47.2518 29.8697 47.1662 29.9553 47.2461 30.2062L46.5618 30.7194C46.653 30.9817 46.5675 31.0673 46.3051 30.976L45.4498 32.0025L45.0221 32.2591L43.9101 33.5422C43.6592 33.4623 43.5736 33.5479 43.6535 33.7988L38.7778 38.5034C38.3216 38.8455 37.6373 38.9596 36.7249 38.8455L35.6129 38.5034C35.7384 38.1954 35.6528 38.0814 35.3563 38.1612L33.7311 36.8782L33.1323 36.1083L31.8492 34.9963L31.4216 34.3976L29.9674 33.1145L29.7108 32.6868L28.4277 31.5748L28 30.976L27.4868 30.6339L26.1182 29.0942L25.6905 28.8376C25.0632 28.2103 24.7781 27.2409 24.8351 25.9293C25.0062 24.9599 25.4339 24.2471 26.1182 23.7909L26.9736 23.2776L28.5133 23.1066L30.0529 23.6198L30.8228 24.3896C30.743 24.6519 30.8285 24.7375 31.0794 24.6462L37.2381 30.805L37.4947 30.5483L37.7514 30.1207L38.179 29.864C38.0992 29.6131 38.1847 29.5276 38.4357 29.6074L39.291 28.581C39.5534 28.6722 39.6389 28.5867 39.5477 28.3244L40.403 27.6401L45.4498 22.4222C45.7121 22.5135 45.7976 22.4279 45.7064 22.1656L50.7531 17.1189Z" fill="#2C3E50" stroke="#2C3E50" stroke-width="0.5"/>
<path opacity="0.392157" d="M11.9189 36.7925L12.0044 37.2202H11.8334L11.9189 36.7925Z" fill="#2C3E50" stroke="#2C3E50" stroke-width="0.5"/>
<path opacity="0.392157" d="M68.8872 36.9636L68.9728 37.3913C68.2999 39.5127 67.2449 41.2519 65.8079 42.6091C64.5533 43.9777 62.8996 44.9472 60.8467 45.5174V45.3463L63.5839 44.1488L64.3537 43.55L64.6103 43.1224C65.3061 42.9627 65.7908 42.592 66.0645 42.0104L66.6633 41.0694C66.9256 41.1607 67.0111 41.0751 66.9199 40.8128L67.6042 39.9575L68.8872 36.9636Z" fill="#2C3E50" stroke="#2C3E50" stroke-width="0.5"/>
<path opacity="0.392157" d="M12.0901 37.4768L13.2021 39.9574L15.6827 42.9512L16.4525 43.3789L16.7091 43.8066L20.6439 45.6884L22.5257 45.8595L22.6968 46.0306H25.434L26.6315 46.3728L27.4014 46.9715L27.9146 48.0835C28.2568 47.9466 28.3708 48.0892 28.2568 48.5112L28.5989 50.0509L28.2568 52.0183L27.7435 52.2749C27.8462 52.6626 27.5896 52.7482 26.9737 52.5315C26.6429 52.828 26.1297 52.9421 25.434 52.8736L25.2629 52.7026L21.4993 52.5315L21.0716 52.2749L22.0125 52.1893L22.1836 52.3604H27.1448L28.0857 51.7616L28.2568 49.1955C28.0287 48.055 27.4869 47.2281 26.6315 46.7149L25.9472 46.3728L22.0125 46.2017L19.6174 45.5174C17.6444 44.8103 16.0191 43.7553 14.7418 42.3525L12.8599 39.7863L12.0901 37.4768Z" fill="#2C3E50" stroke="#2C3E50" stroke-width="0.5"/>
<path opacity="0.392157" d="M7.12887 41.5828C8.33781 44.1945 9.99154 46.3615 12.0901 48.0836L15.5971 50.3932L15.3405 50.4787L12.8599 49.1101L12.6033 48.5969L10.807 47.1427L10.3793 46.544L9.4384 45.7741L8.75409 44.4911C8.44616 44.6165 8.33211 44.531 8.41194 44.2344L7.04333 42.0105L7.12887 41.5828Z" fill="#2C3E50" stroke="#2C3E50" stroke-width="0.5"/>
<path opacity="0.392157" d="M73.6773 41.7537L73.7628 42.0103V42.3524L73.6773 42.609C73.529 42.3581 73.3865 42.3866 73.2496 42.6946L72.3942 44.4909C72.0863 44.3654 71.9722 44.451 72.0521 44.7475C71.6529 44.8045 71.4818 45.0896 71.5389 45.6029L68.8872 48.2545C68.1458 48.4256 67.6326 48.8248 67.3475 49.4521L63.7549 51.3339L60.6755 52.0182V51.8471C62.7284 51.505 64.4962 50.8777 65.9789 49.9653L70.1702 46.8859L71.7099 44.9186L73.6773 41.7537Z" fill="#2C3E50" stroke="#2C3E50" stroke-width="0.5"/>
<path opacity="0.392157" d="M60.1624 45.5173L60.59 45.6029L60.1624 45.6884V45.5173Z" fill="#2C3E50" stroke="#2C3E50" stroke-width="0.5"/>
<path opacity="0.392157" d="M59.1359 45.6885L59.9058 45.774L58.2805 46.2017H47.3317L43.9102 47.0571L33.6456 54.0712L31.5072 56.0386C31.1308 56.5746 31.0168 57.373 31.165 58.4336C31.3361 59.175 31.7068 59.7167 32.277 60.0588L33.3035 60.5721L34.6721 60.7432L36.0407 60.2299L39.1201 57.8349L40.4031 57.1506C40.2777 56.8426 40.3632 56.7286 40.6597 56.8084L46.8185 52.5315L47.6738 52.3604H58.2805L59.1359 52.1894L58.9649 52.5315H57.083L56.9119 52.7026H47.1606L44.68 54.0712L44.4234 54.5844L43.568 54.9266L39.8899 57.5782C39.9811 57.8406 39.8956 57.9261 39.6333 57.8349L36.2118 60.401L34.8432 60.9142H33.9878L32.277 60.401L31.3361 59.4601L30.8229 58.0915V57.065C31.0966 56.0272 31.6383 55.2573 32.4481 54.7555L34.501 53.0447H35.0142L35.7841 52.5315C35.6586 52.2236 35.7442 52.1095 36.0407 52.1894L39.8044 49.4521L40.9164 48.9389L41.173 48.4257L44.5945 46.5439L47.8449 45.8596H48.1871H51.2664L51.4375 46.0306H51.7797H57.4252L59.1359 45.6885Z" fill="#2C3E50" stroke="#2C3E50" stroke-width="0.5"/>
<path opacity="0.392157" d="M15.8537 50.4785L19.874 51.9327L19.4463 52.0182L15.7682 50.8207L15.8537 50.4785Z" fill="#2C3E50" stroke="#2C3E50" stroke-width="0.5"/>
<path opacity="0.392157" d="M20.1306 52.0183L20.7294 52.1038L20.1306 52.1894V52.0183Z" fill="#2C3E50" stroke="#2C3E50" stroke-width="0.5"/>
<path opacity="0.392157" d="M59.649 52.0183L60.4189 52.1038L59.649 52.1894V52.0183Z" fill="#2C3E50" stroke="#2C3E50" stroke-width="0.5"/>
<path opacity="0.392157" d="M3.36516 54.9265L3.87839 55.0976L4.22054 54.9265L4.39162 55.0976H6.78668L6.95776 55.2687H7.29991H9.01067L9.18174 55.4397L11.8334 55.6108C11.9931 56.0328 11.7365 56.1469 11.0636 55.953L8.15529 55.4397L2.50979 55.2687L1.22672 56.0385L0.71349 57.236V72.975L1.48333 74.2581C2.03077 74.7941 2.85764 75.0507 3.96393 75.0279L2.85194 75.1135C1.96234 74.9766 1.30655 74.6059 0.884565 74.0015L0.542414 73.1461L0.371338 70.58L0.542414 70.0667L0.371338 69.5535L0.542414 69.2113V68.8692L0.371338 68.0138V67.6717C0.679274 67.2383 0.7363 66.554 0.542414 65.6188V65.2766C0.690679 64.5011 0.633654 63.9308 0.371338 63.5658C0.633654 63.429 0.690679 63.0868 0.542414 62.5394V62.1972L0.371338 60.4865L0.542414 59.9733V59.6311L0.371338 59.2889L0.542414 59.1179V56.7228L1.48333 55.4397L2.16763 55.0976C2.79491 55.2687 3.19409 55.2116 3.36516 54.9265Z" fill="#2C3E50" stroke="#2C3E50" stroke-width="0.5"/>
<path opacity="0.392157" d="M12.2611 55.9531L13.0309 56.0387L12.2611 56.1242V55.9531Z" fill="#2C3E50" stroke="#2C3E50" stroke-width="0.5"/>
<path opacity="0.392157" d="M13.2876 56.124L17.3934 56.8083L19.9596 57.4926L20.4728 57.8348L20.7294 57.7492C20.6382 58.0458 20.7807 58.1313 21.1571 58.0059L24.2365 59.0323L24.9208 59.5455L28.1712 60.9141L28.6844 61.4274L30.7373 62.4538L34.4155 65.191C34.29 65.499 34.3755 65.613 34.6721 65.5332L36.8961 67.9283C37.1584 67.8484 37.2439 67.934 37.1527 68.1849L38.5213 70.0667L37.837 69.5535L36.3828 67.5861C36.1319 67.6773 36.0464 67.5918 36.1262 67.3295C34.7918 65.824 33.2807 64.4839 31.5927 63.3092L27.3158 60.7431L24.4075 59.3745L19.6174 57.6637L13.2876 56.2951V56.124Z" fill="#2C3E50" stroke="#2C3E50" stroke-width="0.5"/>
<path opacity="0.392157" d="M67.0054 56.124L67.6041 56.2096L61.1888 57.6637L55.2011 59.8877L52.1218 61.4274L49.2135 63.3092L44.68 67.3295L42.3705 70.1522L42.2849 69.8956L46.1341 65.5332L49.6412 62.8815C49.5613 62.6306 49.6469 62.5451 49.8978 62.6249L52.8061 60.7431L55.971 59.46L55.6288 59.2889L55.8854 59.2034H56.2276L60.5045 57.8348L60.8466 57.4926L67.0054 56.124Z" fill="#2C3E50" stroke="#2C3E50" stroke-width="0.5"/>
<path opacity="0.392157" d="M73.6773 61.2563L73.9339 61.513V65.7899H73.7629V62.0262L73.5063 61.5985L73.3352 61.7696H71.9666L71.71 62.0262L71.6244 62.2828L71.5389 61.9407L67.0054 62.625V62.4539L73.6773 61.2563Z" fill="#2C3E50" stroke="#2C3E50" stroke-width="0.5"/>
<path opacity="0.392157" d="M6.87219 61.4275L10.5503 61.7696L14.5706 62.7106L13.9718 62.7961L12.09 62.2829L8.15526 61.7696L7.72757 62.0263L7.47096 61.5986L7.04327 61.8552V68.6982L7.29988 68.9548H8.66849L11.0636 69.4681H12.09L14.2285 70.0668L13.6297 70.1524L12.6032 69.8102L6.87219 69.1259V61.4275Z" fill="#2C3E50" stroke="#2C3E50" stroke-width="0.5"/>
<path opacity="0.392157" d="M66.15 62.625L66.5777 62.7105L66.15 62.7961V62.625Z" fill="#2C3E50" stroke="#2C3E50" stroke-width="0.5"/>
<path opacity="0.392157" d="M14.8273 62.7961L18.4199 63.6515L23.5521 65.7044L26.9737 67.5863L31.3361 71.0933C32.8644 72.5874 34.1189 74.3552 35.0998 76.3967L34.7576 76.4822L33.7311 74.3438L31.4216 71.521L28.8555 69.297L28.5989 69.3826C28.8612 69.2457 28.8327 69.1031 28.5133 68.9549L27.4013 68.4416C27.5268 68.1337 27.4413 68.0197 27.1447 68.0995L23.0389 65.7044C21.5791 65.3965 20.3245 64.8833 19.2752 64.1647L15.1694 63.1383L14.9128 63.2238L14.8273 62.7961Z" fill="#2C3E50" stroke="#2C3E50" stroke-width="0.5"/>
<path opacity="0.392157" d="M65.2946 62.7961L65.8934 62.8817L60.6756 64.3358L56.3987 66.2177V66.0466L61.0177 63.9937L65.2946 62.7961Z" fill="#2C3E50" stroke="#2C3E50" stroke-width="0.5"/>
<path opacity="0.392157" d="M55.7144 66.3887L55.7999 66.7308L53.0627 68.0994C53.1882 68.4074 53.1027 68.5214 52.8061 68.4416L50.8387 69.8102L50.24 70.6656C49.9891 70.5857 49.9035 70.6713 49.9834 70.9222L48.9569 71.7776L46.7329 74.6859L45.8775 76.6532C45.5696 76.7787 45.4556 76.6931 45.5354 76.3966C46.7671 73.9787 48.3353 71.8973 50.24 70.1523C51.8367 68.6697 53.6615 67.4151 55.7144 66.3887Z" fill="#2C3E50" stroke="#2C3E50" stroke-width="0.5"/>
<path opacity="0.392157" d="M73.8483 68.2705L73.9339 69.1259L70.4268 69.468L66.8342 70.1523V69.9813L70.94 69.1259L73.5062 68.9548L73.7628 68.6982L73.8483 68.2705Z" fill="#2C3E50" stroke="#2C3E50" stroke-width="0.5"/>
<path opacity="0.392157" d="M14.4851 70.1523L18.4199 71.0077L20.0451 71.7776L19.7885 71.8631L18.5909 71.3499L14.4851 70.3234V70.1523Z" fill="#2C3E50" stroke="#2C3E50" stroke-width="0.5"/>
<path opacity="0.392157" d="M65.9789 70.1523L66.5777 70.2379L60.3334 72.0342L56.6553 73.5739C56.5299 73.2659 56.6154 73.1519 56.9119 73.2317L57.2541 72.8896H57.9384L59.307 72.2053L60.6756 71.8631L61.0177 71.521L65.9789 70.1523Z" fill="#2C3E50" stroke="#2C3E50" stroke-width="0.5"/>
<path opacity="0.392157" d="M38.6068 70.3235L39.0345 70.5801L40.3176 73.0607L42.0283 70.3235L42.2849 70.409L40.5742 73.4029C40.2662 73.5283 40.1522 73.4428 40.232 73.1462L38.6068 70.3235Z" fill="#2C3E50" stroke="#2C3E50" stroke-width="0.5"/>
<path opacity="0.392157" d="M20.3016 71.863L24.1508 73.2316C24.2763 73.5396 24.1908 73.6536 23.8942 73.5738L20.3016 72.0341V71.863Z" fill="#2C3E50" stroke="#2C3E50" stroke-width="0.5"/>
<path opacity="0.392157" d="M24.4075 73.5737L27.9145 75.1134L27.829 75.4556L25.2628 74.258L24.4075 73.7448V73.5737Z" fill="#2C3E50" stroke="#2C3E50" stroke-width="0.5"/>
<path opacity="0.392157" d="M55.7144 73.7449L56.142 73.8304L52.9771 75.4556L52.8916 75.1135L55.7144 73.7449Z" fill="#2C3E50" stroke="#2C3E50" stroke-width="0.5"/>
<path opacity="0.392157" d="M4.56274 75.1135L10.7215 75.7978L14.2285 76.7387L13.6298 76.8243L10.3793 75.9689L5.76028 75.4557H5.41812L4.56274 75.2846V75.1135Z" fill="#2C3E50" stroke="#2C3E50" stroke-width="0.5"/>
<path opacity="0.392157" d="M74.8749 75.1135L75.8158 75.1991C75.4737 75.5412 74.8749 75.6268 74.0195 75.4557L73.6774 75.7978L72.822 75.6268L66.4922 76.8243V76.6532L69.0583 75.9689H69.9137L72.1377 75.4557H73.3352L73.5063 75.2846H74.7038L74.8749 75.1135Z" fill="#2C3E50" stroke="#2C3E50" stroke-width="0.5"/>
<path opacity="0.392157" d="M28.1711 75.4556L30.8228 76.8242C30.6974 77.1321 30.7829 77.2462 31.0794 77.1663L33.2179 78.6205L33.1323 78.8771C31.798 77.7024 30.2583 76.7329 28.5133 75.9688L28.1711 75.4556Z" fill="#2C3E50" stroke="#2C3E50" stroke-width="0.5"/>
<path opacity="0.392157" d="M52.4639 75.4556L52.7205 75.5411L47.6738 78.8771L47.5883 78.6205L49.9833 77.1663C49.8579 76.8584 49.9434 76.7443 50.2399 76.8242L52.4639 75.4556Z" fill="#2C3E50" stroke="#2C3E50" stroke-width="0.5"/>
<path opacity="0.392157" d="M14.9983 76.9954L19.1041 78.1929L25.7761 81.2723C28.6958 83.0629 31.4045 85.0017 33.9022 87.0888C33.7767 87.3968 33.8623 87.5108 34.1588 87.431C35.0598 88.5259 36.2003 89.3813 37.5803 89.9971L39.6332 90.5104H41.344L43.2258 89.9971L44.5944 89.3128L50.0688 84.5227L54.859 81.2723L57.7673 79.7326L61.0177 78.535V78.7061L57.9383 79.9037L56.3986 80.9301L53.747 82.1276C53.8724 82.4356 53.7869 82.5496 53.4904 82.4698C51.9507 83.3252 50.5821 84.3516 49.3845 85.5492L48.7858 85.7202L47.8449 86.9178L46.9039 87.5165L46.1341 88.4574L44.6799 89.3128C44.8054 89.6208 44.7199 89.7348 44.4233 89.655L41.8572 90.6814H39.12C38.0365 90.5104 37.1241 90.1682 36.3828 89.655L33.9022 87.6876L33.3034 86.9178L32.0203 85.9768C32.1116 85.7259 32.026 85.6404 31.7637 85.7202L26.4604 81.9566L23.8087 80.759C23.9342 80.4511 23.8486 80.337 23.5521 80.4169L20.9859 79.2193L20.045 79.0483C20.1933 78.7061 20.0507 78.5921 19.6173 78.7061C18.3058 78.0788 16.8231 77.6226 15.1694 77.3375L14.9983 76.9954Z" fill="#2C3E50" stroke="#2C3E50" stroke-width="0.5"/>
<path opacity="0.392157" d="M35.3563 76.9954L36.2972 78.7917L37.3237 82.0421L37.067 82.1276L33.3889 78.9627L33.6455 79.0483L35.784 80.5024L36.0406 80.9301L36.3827 81.1012L36.6394 80.5024L35.4418 77.7652L35.3563 76.9954ZM36.6394 81.1012L36.8104 81.4433H36.9815L36.6394 81.1012Z" fill="#2C3E50" stroke="#2C3E50" stroke-width="0.5"/>
<path opacity="0.392157" d="M65.2946 76.9954L65.7223 77.0809L65.4657 77.3375L61.3599 78.535V78.364L65.2946 76.9954Z" fill="#2C3E50" stroke="#2C3E50" stroke-width="0.5"/>
<path opacity="0.392157" d="M45.2787 77.1665L45.3642 77.4231L43.8246 81.5289L44.4233 81.1012L45.0221 80.6736L44.9365 80.4169H45.2787L47.3316 78.8773L46.6473 79.7326L43.739 82.1277C43.4311 81.9908 43.4026 81.8483 43.6535 81.7C43.9272 79.9208 44.4689 78.4097 45.2787 77.1665Z" fill="#2C3E50" stroke="#2C3E50" stroke-width="0.5"/>
</svg>
